<svg xmlns="http://www.w3.org/2000/svg" width="22" height="22" viewBox="0 0 22 22">
  <path id="Icon_awesome-question-circle" data-name="Icon awesome-question-circle" d="M22.562,11.562a11,11,0,1,1-11-11A11,11,0,0,1,22.562,11.562ZM11.858,4.2a5.745,5.745,0,0,0-5.17,2.828.533.533,0,0,0,.12.721L8.348,8.916a.532.532,0,0,0,.739-.094c.792-1,1.336-1.588,2.542-1.588.906,0,2.027.583,2.027,1.462,0,.664-.548,1.005-1.443,1.507-1.043.585-2.424,1.313-2.424,3.134v.177a.532.532,0,0,0,.532.532H12.8a.532.532,0,0,0,.532-.532v-.059c0-1.262,3.69-1.315,3.69-4.731C17.026,6.151,14.358,4.2,11.858,4.2Zm-.3,11a2.04,2.04,0,1,0,2.04,2.04A2.043,2.043,0,0,0,11.562,15.2Z" transform="translate(-0.563 -0.563)" opacity="0.7"/>
</svg>
